# xmcd
#
# Track frame offsets: 
#        150
#        12775
#        24740
#        36862
#        49457
#        63150
#        74907
#        86490
#        101102
#        112792
#        126105
#        129547
#        144670
#        157927
#        168792
#        182400
#        193270
#        205662
#        218592
#        230732
#        241755
#        252595
#
# Disc length: 3523 seconds
#
# Revision: 0
# Processed by: cddbd v1.5PL3 Copyright (c) Steve Scherf et al.
# Submitted via: ExactAudioCopy v0.95a3
#
DISCID=370dc116
DTITLE=Philips, Esther - Complete Savoy Recordings w. Johnny Otis
DYEAR=1950
DGENRE=Blues
TTITLE0=Double Crossing Blues
TTITLE1=Get Together Blues
TTITLE2=Lover's Lane Boogie
TTITLE3=Misery
TTITLE4=Mistrustin' Blues
TTITLE5=Cupid's Boogie
TTITLE6=Just Can't Get Free
TTITLE7=Lost in a Dream (Lost Dream Blues)
TTITLE8=Deceivin' Blues
TTITLE9=Wedding Boogie
TTITLE10=Christmas Grettings
TTITLE11=Faraway Christmas Blues
TTITLE12=Love Will Break Your Heart for You
TTITLE13=I Dream
TTITLE14=I Don't Care
TTITLE15=(I've Got a) Longing in my Heart
TTITLE16=You Can Bet Your Life (I Do)
TTITLE17=T'Ain't Whatcha Say It's Whatcha Do
TTITLE18=If It's News to You
TTITLE19=It's So Good
TTITLE20=Do You Ever Think of Me
TTITLE21=Oo Papa Do
EXTD=
EXTT0=
EXTT1=
EXTT2=
EXTT3=
EXTT4=
EXTT5=
EXTT6=
EXTT7=
EXTT8=
EXTT9=
EXTT10=
EXTT11=
EXTT12=
EXTT13=
EXTT14=
EXTT15=
EXTT16=
EXTT17=
EXTT18=
EXTT19=
EXTT20=
EXTT21=
PLAYORDER=
